<svg width="42" height="42" viewBox="0 0 42 42" fill="none" xmlns="http://www.w3.org/2000/svg">
<path d="M41.5 19C41.5 19.7476 41.0459 20.5395 40.0402 21.332C39.0402 22.1201 37.5621 22.8517 35.6911 23.4754C31.9543 24.721 26.7602 25.5 21 25.5C15.2398 25.5 10.0457 24.721 6.30887 23.4754C4.43786 22.8517 2.95981 22.1201 1.95977 21.332C0.9541 20.5395 0.5 19.7476 0.5 19C0.5 18.2524 0.9541 17.4605 1.95977 16.668C2.95981 15.8799 4.43786 15.1483 6.30887 14.5246C10.0457 13.279 15.2398 12.5 21 12.5C26.7602 12.5 31.9543 13.279 35.6911 14.5246C37.5621 15.1483 39.0402 15.8799 40.0402 16.668C41.0459 17.4605 41.5 18.2524 41.5 19Z" stroke="#828DF8"/>
<circle cx="26.5" cy="23.5" r="9.5" fill="#BDC1EC"/>
<circle cx="10.5" cy="13.5" r="2.5" fill="#5865FC"/>
</svg>
